<svg width="238" height="240" viewBox="0 0 238 240" fill="none" xmlns="http://www.w3.org/2000/svg">
<path d="M45.4236 30.2944L17.0752 0L38.2735 0.091868L60.6176 0.188702L81.8158 0.28057L106.452 0.387335L132.801 1.6474L152.202 2.67807C154.921 2.82252 157.626 3.16898 160.293 3.71457C163.341 4.33778 166.33 5.2187 169.228 6.34783L179.744 10.4449L181.595 11.3805C189.481 15.3665 196.88 20.2514 203.644 25.9377L207.165 28.8977L207.461 29.2119C214.449 36.6319 220.298 45.0473 224.816 54.1834L225.697 55.9644C230.015 64.6937 233.202 73.9378 235.181 83.4731L236.128 88.0357L236.389 91.338C236.938 98.2871 236.75 105.275 235.828 112.184C235.174 117.082 234.15 121.939 232.771 126.685C231.06 132.579 228.8 138.32 226.031 143.798L224.414 146.997L224.132 147.451C221.247 152.095 218.032 156.526 214.514 160.711L214.039 161.276L208.28 168.126L203.677 172.69L198.503 176.678C195.127 178.683 190.82 178.134 188.055 175.346L147.124 134.058C146.175 133.101 146.163 131.55 147.139 130.62C148.149 129.658 149.412 128.6 150.658 127.609C153.957 124.986 156.972 121.919 159.266 118.384C160.379 116.669 161.34 114.83 162.107 112.936C163.64 109.15 164.437 105.106 164.455 101.022L164.461 99.7567L164.474 96.5533C164.493 92.2355 163.688 87.9537 162.101 83.9377C161.437 82.2541 160.638 80.6264 159.713 79.0702L159.103 78.0422C157.044 74.5769 154.314 71.557 151.074 69.1593C148.65 67.3649 145.97 65.9425 143.126 64.9391L141.226 64.2692C136.614 62.6426 131.762 61.8012 126.872 61.78L117.486 61.7394C90.1614 61.6209 64.0936 50.2461 45.4236 30.2944Z" fill="url(#paint0_linear_169_4)"/>
<path d="M1.89623 39.5387L2.71975 7.38587L93.4202 98.8758L231.462 239.271L196.681 239.12C166.139 238.987 136.914 226.667 115.494 204.895L34.7613 122.833C12.9623 100.675 1.10037 70.6118 1.89623 39.5387Z" fill="url(#paint1_linear_169_4)"/>
<path d="M89.389 235.79L87.6703 235.782C41.7896 235.584 4.75722 198.229 4.95605 152.348L89.389 235.79Z" fill="#630081"/>
<defs>
<linearGradient id="paint0_linear_169_4" x1="127.363" y1="0.477962" x2="126.586" y2="179.804" gradientUnits="userSpaceOnUse">
<stop stop-color="#C300FF"/>
<stop offset="1" stop-color="#5A0076"/>
</linearGradient>
<linearGradient id="paint1_linear_169_4" x1="116.732" y1="7.87997" x2="115.731" y2="238.769" gradientUnits="userSpaceOnUse">
<stop stop-color="#C300FF"/>
<stop offset="1" stop-color="#330542"/>
</linearGradient>
</defs>
</svg>
