<svg width="362" height="363" viewBox="0 0 362 363" fill="none" xmlns="http://www.w3.org/2000/svg">
<rect x="5" y="5" width="352" height="353" rx="176" fill="#0D0C0C" stroke="black" stroke-width="10"/>
<path d="M110.424 96.2944L82.0752 66L103.273 66.0919L125.618 66.1887L146.816 66.2806L171.452 66.3873L197.801 67.6474L217.202 68.6781C219.921 68.8225 222.626 69.169 225.293 69.7146C228.341 70.3378 231.33 71.2187 234.228 72.3478L244.744 76.4449L246.595 77.3805C254.481 81.3665 261.88 86.2514 268.644 91.9377L272.165 94.8977L272.461 95.2119C279.449 102.632 285.298 111.047 289.816 120.183L290.697 121.964C295.015 130.694 298.202 139.938 300.181 149.473L301.128 154.036L301.389 157.338C301.938 164.287 301.75 171.275 300.828 178.184C300.174 183.082 299.15 187.939 297.771 192.685C296.06 198.579 293.8 204.32 291.031 209.798L289.414 212.997L289.132 213.451C286.247 218.095 283.032 222.526 279.514 226.711L279.039 227.276L273.28 234.126L268.677 238.69L263.503 242.678C260.127 244.683 255.82 244.134 253.055 241.346L212.124 200.058C211.175 199.101 211.163 197.55 212.139 196.62C213.149 195.658 214.412 194.6 215.658 193.609C218.957 190.986 221.972 187.919 224.266 184.384C225.379 182.669 226.34 180.83 227.107 178.936C228.64 175.15 229.437 171.106 229.455 167.022L229.461 165.757L229.474 162.553C229.493 158.235 228.688 153.954 227.101 149.938C226.437 148.254 225.638 146.626 224.713 145.07L224.103 144.042C222.044 140.577 219.314 137.557 216.074 135.159C213.65 133.365 210.97 131.942 208.126 130.939L206.226 130.269C201.614 128.643 196.762 127.801 191.872 127.78L182.486 127.739C155.161 127.621 129.094 116.246 110.424 96.2944Z" fill="url(#paint0_linear_169_5)"/>
<path d="M66.8962 105.539L67.7198 73.3859L158.42 164.876L296.462 305.271L261.681 305.12C231.139 304.987 201.914 292.667 180.494 270.895L99.7613 188.833C77.9623 166.675 66.1004 136.612 66.8962 105.539Z" fill="url(#paint1_linear_169_5)"/>
<path d="M154.389 301.79L152.67 301.782C106.79 301.584 69.7572 264.229 69.9561 218.348L154.389 301.79Z" fill="#630081"/>
<defs>
<linearGradient id="paint0_linear_169_5" x1="192.363" y1="66.478" x2="191.586" y2="245.804" gradientUnits="userSpaceOnUse">
<stop stop-color="#C300FF"/>
<stop offset="1" stop-color="#5A0076"/>
</linearGradient>
<linearGradient id="paint1_linear_169_5" x1="181.732" y1="73.88" x2="180.731" y2="304.769" gradientUnits="userSpaceOnUse">
<stop stop-color="#C300FF"/>
<stop offset="1" stop-color="#330542"/>
</linearGradient>
</defs>
</svg>
