<svg width="224" height="228" viewBox="0 0 224 228" fill="none" xmlns="http://www.w3.org/2000/svg">
<path d="M15.2378 121.925L30.1931 107.033L25.3527 102.172L27.7584 99.7769L39.9459 112.016L37.5401 114.412L32.6874 109.538L17.7321 124.43L15.2378 121.925ZM28.3987 135.142L42.1911 114.271L44.7965 116.888L36.0329 129.689C35.7598 130.093 35.5115 130.455 35.2881 130.776C35.073 131.089 34.8496 131.386 34.618 131.666C34.9237 131.46 35.2458 131.255 35.5845 131.049C35.9397 130.844 36.3196 130.63 36.7243 130.408L50.3901 122.505L52.4399 124.564L44.5407 138.208C44.3089 138.604 44.0936 138.958 43.895 139.271C43.7046 139.576 43.506 139.864 43.2992 140.136C43.5801 139.939 43.8651 139.737 44.1543 139.531C44.46 139.326 44.7987 139.104 45.1704 138.865L58.1817 130.33L60.7501 132.909L39.6353 146.427L37.5362 144.319L45.7712 129.846C45.9865 129.467 46.1811 129.125 46.355 128.82C46.5454 128.515 46.7399 128.214 46.9385 127.918C46.6493 128.123 46.3561 128.317 46.0587 128.498C45.7696 128.67 45.4309 128.867 45.0427 129.089L30.5472 137.3L28.3987 135.142ZM46.5268 153.348L63.8878 136.061L74.6306 146.849L72.262 149.208L64.0136 140.924L59.1773 145.74L64.4252 151.01L62.0567 153.368L56.8088 148.098L51.4145 153.469L60.1939 162.286L57.8006 164.67L46.5268 153.348ZM61.383 168.267L78.744 150.98L81.1889 153.435L76.9164 172.433C76.8498 172.73 76.7666 173.052 76.6668 173.398C76.5671 173.744 76.4591 174.091 76.3429 174.437C76.5413 174.223 76.7481 173.992 76.9631 173.745C77.1863 173.506 77.3889 173.297 77.5708 173.115L89.2274 161.508L91.7217 164.013L74.3607 181.3L72.027 178.957L76.2133 159.773C76.2881 159.501 76.3712 159.188 76.4627 158.833C76.5625 158.487 76.6581 158.153 76.7495 157.831C76.584 158.045 76.3938 158.268 76.1789 158.498C75.9639 158.729 75.7613 158.939 75.5712 159.128L63.8773 170.772L61.383 168.267ZM82.6212 189.596L97.5764 174.704L92.736 169.843L95.1417 167.448L107.329 179.687L104.923 182.083L100.071 177.209L85.1155 192.101L82.6212 189.596ZM97.8105 204.85L104.619 198.071L109.146 181.512L111.961 184.339L108.371 196.805L120.889 193.305L123.655 196.082L107.15 200.539L100.305 207.355L97.8105 204.85Z" fill="#5B0077"/>
<path d="M85 53.5L31 0H49.5H69H87.5H109L132 1L148.935 1.82609C151.308 1.94187 153.67 2.23399 156 2.70004C158.662 3.23238 161.274 3.98986 163.807 4.96429L173 8.5L174.619 9.30954C181.517 12.7583 187.992 16.9933 193.916 21.9301L197 24.5L197.259 24.7731C203.386 31.222 208.522 38.544 212.5 46.5L213.275 48.0509C217.076 55.6526 219.893 63.7079 221.656 72.0219L222.5 76L222.74 78.881C223.245 84.9433 223.107 91.0421 222.329 97.0754C221.777 101.352 220.901 105.595 219.717 109.742C218.245 114.892 216.295 119.911 213.899 124.702L212.5 127.5L212.256 127.897C209.755 131.96 206.967 135.84 203.912 139.505L203.5 140L198.5 146L194.5 150L190 153.5C187.061 155.263 183.3 154.8 180.877 152.377L145 116.5C144.172 115.672 144.172 114.328 145 113.5L148.398 110.781C151.115 108.608 153.459 106.008 155.34 103.082L155.55 102.756C156.514 101.255 157.333 99.6663 157.996 98.0101C159.32 94.7005 160 91.1686 160 87.6039V86.5V83.7043C160 79.9361 159.281 76.2024 157.881 72.7036C157.295 71.2369 156.592 69.8194 155.779 68.4648L155.242 67.57C153.432 64.5536 151.039 61.9285 148.202 59.8483C146.079 58.2915 143.736 57.0603 141.249 56.1954L139.589 55.618C135.558 54.2159 131.321 53.5 127.053 53.5H85Z" fill="#5B0077"/>
<path d="M17 77L18.5 6.5L98 86L219 208H147L17 77Z" fill="#5B0077"/>
<path d="M17 208V134L91 208H17Z" fill="#5B0077"/>
</svg>
